<?xml version="1.0" encoding="UTF-8" standalone="no"?>
<!DOCTYPE svg PUBLIC "-//W3C//DTD SVG 1.1//EN" "http://www.w3.org/Graphics/SVG/1.1/DTD/svg11.dtd">
<svg width="100%" height="100%" viewBox="0 0 512 512" version="1.1" xmlns="http://www.w3.org/2000/svg" xmlns:xlink="http://www.w3.org/1999/xlink" xml:space="preserve" xmlns:serif="http://www.serif.com/" style="fill-rule:evenodd;clip-rule:evenodd;stroke-linejoin:round;stroke-miterlimit:2;">
    <g transform="matrix(0.922856,0,0,0.922856,-167.061,-362.322)">
        <path d="M735.825,531.309C735.825,454.759 673.676,392.609 597.125,392.609L319.726,392.609C243.175,392.609 181.026,454.759 181.026,531.309L181.026,808.709C181.026,885.259 243.175,947.409 319.726,947.409L597.125,947.409C673.676,947.409 735.825,885.259 735.825,808.709L735.825,531.309Z" style="fill:url(#_Linear1);"/>
    </g>
    <path d="M318.175,342.078C296.098,342.078 278.175,324.154 278.175,302.078C278.175,280.001 296.098,262.078 318.175,262.078L434.175,262.078L434.175,262.079C442.921,262.178 449.99,269.309 449.99,278.078L449.99,326.078L449.99,326.181C449.935,334.902 442.886,341.978 434.175,342.076L434.175,342.078L318.175,342.078ZM62.01,210.092C62.01,188.016 79.933,170.092 102.01,170.092C124.086,170.092 142.01,188.016 142.01,210.092L142.01,326.092L142.009,326.092C141.909,334.838 134.779,341.908 126.01,341.908L78.01,341.908L77.906,341.907C69.185,341.852 62.109,334.804 62.011,326.092L62.01,326.092L62.01,210.092ZM154.165,210.092C154.165,188.016 172.088,170.092 194.165,170.092C216.241,170.092 234.165,188.016 234.165,210.092L234.165,326.092L234.164,326.092C234.064,334.838 226.934,341.908 218.165,341.908L170.165,341.908L170.061,341.907C161.34,341.852 154.264,334.804 154.166,326.092L154.165,326.092L154.165,210.092ZM318.175,249.922C296.098,249.922 278.175,231.999 278.175,209.922C278.175,187.846 296.098,169.922 318.175,169.922L434.175,169.922L434.175,169.924C442.921,170.023 449.99,177.154 449.99,185.922L449.99,233.922L449.99,234.026C449.935,242.747 442.886,249.823 434.175,249.921L434.175,249.922L318.175,249.922Z" style="fill:white;"/>
    <defs>
        <linearGradient id="_Linear1" x1="0" y1="0" x2="1" y2="0" gradientUnits="userSpaceOnUse" gradientTransform="matrix(554.8,0,0,554.8,181.026,670.009)"><stop offset="0" style="stop-color:rgb(0,208,255);stop-opacity:1"/><stop offset="1" style="stop-color:rgb(255,0,116);stop-opacity:1"/></linearGradient>
    </defs>
</svg>
