<?xml version="1.0" encoding="UTF-8" standalone="no"?>
<!DOCTYPE svg PUBLIC "-//W3C//DTD SVG 1.1//EN" "http://www.w3.org/Graphics/SVG/1.1/DTD/svg11.dtd">
<svg width="100%" height="100%" viewBox="0 0 933 115" version="1.1" xmlns="http://www.w3.org/2000/svg" xmlns:xlink="http://www.w3.org/1999/xlink" xml:space="preserve" xmlns:serif="http://www.serif.com/" style="fill-rule:evenodd;clip-rule:evenodd;stroke-linejoin:round;stroke-miterlimit:2;">
    <g transform="matrix(10.4359,0,0,9.62072,-1294.12,-3606.25)">
        <clipPath id="_clip1">
            <path d="M181.834,380.791C181.358,381.29 181.001,382.044 181.001,383.183C181.001,386.539 184.149,386.739 184.149,386.739C184.166,386.74 184.183,386.741 184.199,386.741L187.946,386.741C188.442,386.741 188.844,386.304 188.844,385.766C188.844,385.228 188.442,384.792 187.946,384.792L184.23,384.792C184.056,384.776 182.798,384.61 182.798,383.183C182.798,381.721 184.191,381.766 184.191,381.766C184.197,381.766 184.204,381.766 184.21,381.766L186.588,381.766C187.084,381.766 187.487,381.33 187.487,380.792L187.487,380.792C187.487,380.254 187.084,379.817 186.588,379.817L184.21,379.817L184.178,379.817C184.04,379.818 182.798,379.78 182.798,378.4C182.798,376.974 184.054,376.808 184.229,376.791C184.23,376.791 187.946,376.791 187.946,376.791C188.442,376.791 188.844,376.355 188.844,375.817C188.844,375.279 188.442,374.842 187.946,374.842L184.199,374.842C184.183,374.842 184.166,374.843 184.149,374.844C184.149,374.844 181.001,375.045 181.001,378.4C181.001,379.539 181.358,380.293 181.834,380.791ZM172.767,386.741L172.767,386.741C173.262,386.741 173.665,386.304 173.665,385.766L173.665,379.143L173.665,379.111L173.664,379.1C173.664,378.937 173.686,377.907 174.361,377.271C174.673,376.976 175.131,376.792 175.781,376.792C176.432,376.792 176.892,376.977 177.206,377.272C177.944,377.965 177.912,379.126 177.912,379.126C177.912,379.132 177.912,379.137 177.912,379.143L177.91,385.766C177.91,386.304 178.313,386.741 178.809,386.741C179.304,386.741 179.707,386.304 179.707,385.766L179.708,379.143C179.708,379.16 179.727,377.062 178.382,375.799C177.804,375.256 176.979,374.843 175.781,374.843C174.582,374.843 173.759,375.256 173.182,375.8C173.027,375.947 172.89,376.104 172.769,376.269C172.649,376.105 172.514,375.948 172.36,375.802C171.785,375.257 170.965,374.843 169.771,374.843C168.577,374.843 167.757,375.257 167.182,375.802C165.85,377.065 165.877,379.164 165.877,379.164C165.877,379.144 165.885,385.768 165.885,385.768C165.886,386.305 166.289,386.741 166.784,386.741C167.28,386.74 167.682,386.303 167.682,385.765L167.673,379.142C167.673,379.135 167.673,379.129 167.673,379.122C167.673,379.122 167.635,377.961 168.365,377.269C168.674,376.976 169.128,376.792 169.771,376.792C170.414,376.792 170.868,376.976 171.177,377.269C171.907,377.961 171.868,379.122 171.868,379.122C171.868,379.129 171.868,379.136 171.868,379.143L171.868,385.766C171.868,386.304 172.271,386.741 172.767,386.741ZM197.117,386.741L197.117,386.741C197.613,386.741 198.015,386.304 198.015,385.766L198.015,379.143L198.015,379.111L198.015,379.1C198.014,378.937 198.037,377.907 198.711,377.271C199.024,376.976 199.482,376.792 200.132,376.792C200.783,376.792 201.242,376.977 201.557,377.272C202.295,377.965 202.262,379.126 202.262,379.126C202.262,379.132 202.262,379.137 202.262,379.143L202.261,385.766C202.261,386.304 202.663,386.741 203.159,386.741C203.655,386.741 204.058,386.304 204.058,385.766L204.059,379.143C204.059,379.16 204.078,377.062 202.733,375.799C202.154,375.256 201.33,374.843 200.132,374.843C198.933,374.843 198.109,375.256 197.532,375.8C197.377,375.947 197.24,376.104 197.119,376.269C197,376.105 196.864,375.948 196.71,375.802C196.136,375.257 195.316,374.843 194.121,374.843C192.927,374.843 192.107,375.257 191.533,375.802C190.201,377.065 190.227,379.164 190.227,379.164C190.227,379.144 190.235,385.768 190.235,385.768C190.236,386.305 190.639,386.741 191.135,386.741C191.631,386.74 192.033,386.303 192.032,385.765L192.024,379.142C192.024,379.135 192.024,379.129 192.024,379.122C192.024,379.122 191.986,377.961 192.715,377.269C193.025,376.976 193.478,376.792 194.121,376.792C194.765,376.792 195.218,376.976 195.527,377.269C196.257,377.961 196.219,379.122 196.219,379.122C196.219,379.129 196.219,379.136 196.219,379.143L196.219,385.766C196.219,386.304 196.621,386.741 197.117,386.741ZM206.376,380.791C205.9,381.29 205.543,382.044 205.543,383.183C205.543,386.539 208.691,386.739 208.691,386.739C208.708,386.74 208.725,386.741 208.741,386.741L212.488,386.741C212.984,386.741 213.386,386.304 213.386,385.766C213.386,385.228 212.984,384.792 212.488,384.792L208.772,384.792C208.598,384.776 207.34,384.61 207.34,383.183C207.34,381.721 208.733,381.766 208.733,381.766C208.739,381.766 208.746,381.766 208.752,381.766L211.13,381.766C211.626,381.766 212.029,381.33 212.029,380.792L212.029,380.792C212.029,380.254 211.626,379.817 211.13,379.817L208.752,379.817L208.721,379.817C208.582,379.818 207.34,379.78 207.34,378.4C207.34,376.974 208.597,376.808 208.771,376.791C208.772,376.791 212.488,376.791 212.488,376.791C212.984,376.791 213.386,376.355 213.386,375.817C213.386,375.279 212.984,374.842 212.488,374.842L208.741,374.842C208.725,374.842 208.708,374.843 208.691,374.844C208.691,374.844 205.543,375.045 205.543,378.4C205.543,379.539 205.9,380.293 206.376,380.791ZM158.172,385.765L158.164,379.142C158.164,379.135 158.164,379.128 158.164,379.122C158.164,379.122 158.126,377.961 158.856,377.269C159.165,376.975 159.619,376.791 160.262,376.791C160.905,376.791 161.359,376.975 161.668,377.269C162.398,377.961 162.359,379.122 162.359,379.122C162.359,379.129 162.359,379.136 162.359,379.143L162.359,385.766C162.359,386.304 162.762,386.741 163.257,386.741C163.753,386.741 164.156,386.304 164.156,385.766L164.156,379.143C164.156,379.164 164.182,377.065 162.851,375.802C162.276,375.257 161.456,374.842 160.262,374.842C159.068,374.842 158.247,375.257 157.673,375.802C156.341,377.065 156.368,379.164 156.368,379.164C156.368,379.144 156.376,385.767 156.376,385.767C156.376,386.305 156.779,386.741 157.275,386.741C157.771,386.74 158.173,386.303 158.172,385.765ZM130.897,386.741L130.897,386.741C131.393,386.741 131.795,386.304 131.795,385.766L131.795,379.143L131.795,379.11L131.795,379.1C131.794,378.937 131.816,377.906 132.491,377.271C132.803,376.976 133.261,376.791 133.911,376.791C134.562,376.791 135.022,376.977 135.336,377.272C136.074,377.965 136.042,379.126 136.042,379.126C136.042,379.132 136.042,379.137 136.042,379.143L136.041,385.766C136.041,386.304 136.443,386.74 136.939,386.741C137.435,386.741 137.837,386.304 137.837,385.766L137.838,379.143C137.838,379.16 137.857,377.061 136.512,375.799C135.934,375.255 135.109,374.842 133.911,374.842C132.712,374.842 131.889,375.256 131.312,375.8C131.157,375.946 131.02,376.104 130.899,376.268C130.779,376.105 130.644,375.948 130.49,375.802C129.916,375.257 129.095,374.842 127.901,374.842C126.707,374.842 125.887,375.257 125.312,375.802C123.98,377.065 124.007,379.164 124.007,379.164C124.007,379.144 124.015,385.767 124.015,385.767C124.016,386.305 124.419,386.741 124.914,386.741C125.41,386.74 125.812,386.303 125.812,385.765L125.804,379.142C125.804,379.135 125.803,379.128 125.803,379.122C125.803,379.122 125.765,377.961 126.495,377.269C126.804,376.975 127.258,376.791 127.901,376.791C128.544,376.791 128.998,376.975 129.307,377.269C130.037,377.961 129.998,379.122 129.998,379.122C129.998,379.129 129.998,379.136 129.998,379.143L129.998,385.766C129.998,386.304 130.401,386.741 130.897,386.741ZM140.156,380.791C139.68,381.29 139.323,382.044 139.323,383.183C139.323,386.539 142.471,386.739 142.471,386.739C142.488,386.74 142.504,386.741 142.521,386.741L146.268,386.741C146.764,386.741 147.166,386.304 147.166,385.766C147.166,385.228 146.764,384.792 146.268,384.792L142.552,384.792C142.378,384.776 141.12,384.61 141.12,383.183C141.12,381.721 142.513,381.766 142.513,381.766C142.519,381.766 142.525,381.766 142.532,381.766L144.91,381.766C145.406,381.766 145.808,381.329 145.808,380.792L145.808,380.791C145.808,380.254 145.406,379.817 144.91,379.817L142.532,379.817L142.5,379.817C142.361,379.817 141.12,379.78 141.12,378.4C141.12,376.974 142.376,376.807 142.551,376.791C142.552,376.791 146.268,376.791 146.268,376.791C146.764,376.791 147.166,376.355 147.166,375.817C147.166,375.279 146.764,374.842 146.268,374.842L142.521,374.842C142.504,374.842 142.488,374.843 142.471,374.844C142.471,374.844 139.323,375.044 139.323,378.4C139.323,379.539 139.68,380.293 140.156,380.791ZM150.992,376.791L150.992,385.766C150.992,386.304 151.394,386.741 151.89,386.741C152.386,386.741 152.788,386.304 152.788,385.766L152.788,376.791L154.904,376.791C155.4,376.791 155.803,376.355 155.803,375.817C155.803,375.279 155.4,374.842 154.904,374.842L148.875,374.842C148.38,374.842 147.977,375.279 147.977,375.817C147.977,376.355 148.38,376.791 148.875,376.791L150.992,376.791Z"/>
        </clipPath>
        <g clip-path="url(#_clip1)">
            <rect x="121.299" y="373.585" width="92.233" height="14.386" style="fill:url(#_Linear2);"/>
        </g>
    </g>
    <defs>
        <linearGradient id="_Linear2" x1="0" y1="0" x2="1" y2="0" gradientUnits="userSpaceOnUse" gradientTransform="matrix(92.2326,0,0,14.3855,121.299,380.777)">
            <stop offset="0" stop-color="rgb(0,208,255)">
                <animate attributeName="stop-color" values="rgb(0,208,255);rgb(255,0,116);rgb(0,208,255);" dur="20s" repeatCount="indefinite"/>
            </stop>
            <stop offset="1" stop-color="rgb(255,0,116)">
                <animate attributeName="stop-color" values="rgb(255,0,116);rgb(0,208,255);rgb(255,0,116);" dur="20s" repeatCount="indefinite"/>
            </stop>
        </linearGradient>
    </defs>
</svg>
