<?xml version="1.0" encoding="UTF-8" standalone="no"?>
<!DOCTYPE svg PUBLIC "-//W3C//DTD SVG 1.1//EN" "http://www.w3.org/Graphics/SVG/1.1/DTD/svg11.dtd">
<svg width="100%" height="100%" viewBox="0 0 868 115" version="1.1" xmlns="http://www.w3.org/2000/svg" xmlns:xlink="http://www.w3.org/1999/xlink" xml:space="preserve" xmlns:serif="http://www.serif.com/" style="fill-rule:evenodd;clip-rule:evenodd;stroke-linejoin:round;stroke-miterlimit:2;">
    <g transform="matrix(1,0,0,1,-35.2457,-166.81)">
        <clipPath id="_clip1">
            <path d="M638.72,224.044C633.754,228.843 630.03,236.095 630.03,247.056C630.03,279.339 662.883,281.268 662.883,281.268C663.057,281.278 663.231,281.283 663.405,281.283L702.506,281.283C707.68,281.283 711.881,277.082 711.881,271.908C711.881,266.733 707.68,262.533 702.506,262.533L663.726,262.533C661.909,262.378 648.78,260.785 648.78,247.056C648.78,232.993 663.319,233.421 663.319,233.421C663.385,233.423 663.451,233.423 663.516,233.423L688.336,233.423C693.511,233.423 697.711,229.223 697.711,224.048L697.711,224.047C697.711,218.872 693.511,214.672 688.336,214.672L663.516,214.672C663.459,214.672 663.402,214.672 663.346,214.673L663.328,214.673C663.304,214.674 663.28,214.674 663.256,214.674L663.188,214.675C661.739,214.676 648.78,214.316 648.78,201.039C648.78,187.318 661.894,185.719 663.717,185.563C663.726,185.562 702.506,185.562 702.506,185.562C707.68,185.562 711.881,181.362 711.881,176.187C711.881,171.013 707.68,166.812 702.506,166.812L663.405,166.812C663.231,166.812 663.057,166.817 662.883,166.827C662.883,166.827 630.03,168.756 630.03,201.039C630.03,211.997 633.752,219.248 638.72,224.044ZM544.094,281.283L544.095,281.283C549.27,281.283 553.47,277.082 553.47,271.908L553.47,208.187C553.47,208.131 553.47,208.075 553.469,208.019L553.468,207.993C553.468,207.954 553.467,207.914 553.467,207.875L553.465,207.773C553.457,206.206 553.693,196.292 560.729,190.177C563.991,187.342 568.773,185.564 575.556,185.564C582.349,185.564 587.147,187.35 590.428,190.189C598.128,196.855 597.789,208.027 597.789,208.027C597.788,208.08 597.788,208.133 597.788,208.186L597.776,271.906C597.775,277.08 601.975,281.282 607.149,281.283C612.324,281.284 616.525,277.084 616.526,271.909L616.538,208.189C616.536,208.348 616.735,188.162 602.699,176.012C596.663,170.788 588.057,166.814 575.556,166.814C563.043,166.814 554.447,170.795 548.43,176.025C546.808,177.434 545.378,178.952 544.118,180.532C542.87,178.959 541.454,177.448 539.849,176.044C533.855,170.802 525.295,166.814 512.833,166.814C500.371,166.814 491.81,170.802 485.817,176.044C471.918,188.198 472.196,208.389 472.196,208.389C472.194,208.2 472.278,271.92 472.278,271.92C472.285,277.094 476.491,281.29 481.665,281.283C486.84,281.276 491.035,277.069 491.028,271.895L490.944,208.175C490.944,208.112 490.943,208.049 490.941,207.986C490.941,207.986 490.543,196.819 498.16,190.158C501.388,187.335 506.121,185.564 512.833,185.564C519.544,185.564 524.277,187.335 527.505,190.158C535.121,196.818 534.721,207.985 534.721,207.985C534.72,208.052 534.719,208.12 534.719,208.187L534.719,271.908C534.719,277.082 538.92,281.283 544.094,281.283ZM734.572,166.812L734.563,166.812C729.389,166.812 725.188,171.013 725.188,176.187L725.188,271.907C725.188,277.081 729.389,281.282 734.563,281.282C739.737,281.282 743.938,277.081 743.938,271.907L743.938,185.562L773.343,185.562C775.159,185.717 788.289,187.31 788.289,201.039C788.289,214.322 775.319,214.676 773.879,214.675C773.812,214.673 773.745,214.672 773.678,214.672C773.637,214.672 773.595,214.671 773.554,214.671L766.114,214.67L766.054,214.671L765.993,214.671L765.933,214.672L765.873,214.673L765.812,214.675L765.752,214.677L765.692,214.68L765.632,214.682L765.573,214.686L765.513,214.689L765.453,214.693L765.394,214.698L765.334,214.702L765.275,214.707L765.216,214.713L765.156,214.719L765.097,214.725L765.039,214.731L764.98,214.738L764.921,214.746L764.863,214.753L764.804,214.761L764.746,214.77L764.688,214.778L764.629,214.787L764.571,214.797L764.514,214.807L764.456,214.817L764.398,214.827L764.341,214.838L764.283,214.849L764.226,214.861L764.169,214.873L764.112,214.885L764.055,214.897L763.998,214.91L763.942,214.924L763.885,214.937L763.829,214.951L763.773,214.965L763.717,214.98L763.661,214.995L763.605,215.01L763.549,215.026L763.494,215.042L763.438,215.058L763.383,215.075L763.328,215.092L763.273,215.109L763.218,215.127L763.163,215.145L763.109,215.163L763.055,215.181L763,215.2L762.946,215.22L762.892,215.239L762.839,215.259L762.785,215.279L762.732,215.3L762.678,215.321L762.625,215.342L762.572,215.363L762.519,215.385L762.467,215.407L762.414,215.43L762.362,215.452L762.31,215.475L762.258,215.499L762.206,215.522L762.154,215.546L762.103,215.57L762.051,215.595L762,215.62L761.949,215.645L761.899,215.67L761.848,215.696L761.797,215.722L761.747,215.748L761.697,215.775L761.647,215.802L761.597,215.829L761.548,215.857L761.499,215.885L761.449,215.913L761.4,215.941L761.352,215.97L761.303,215.999L761.255,216.028L761.206,216.057L761.158,216.087L761.11,216.117L761.063,216.148L761.015,216.178L760.968,216.209L760.921,216.24L760.874,216.272L760.827,216.303L760.781,216.335L760.735,216.368L760.689,216.4L760.643,216.433L760.597,216.466L760.552,216.5L760.507,216.533L760.461,216.567L760.417,216.601L760.372,216.636L760.328,216.67L760.284,216.705L760.24,216.74L760.196,216.776L760.152,216.812L760.109,216.847L760.066,216.884L760.023,216.92L759.98,216.957L759.938,216.994L759.896,217.031L759.854,217.069L759.812,217.106L759.77,217.144L759.729,217.182L759.688,217.221L759.647,217.26L759.607,217.298L759.566,217.338L759.526,217.377L759.486,217.417L759.447,217.457L759.407,217.497L759.368,217.537L759.329,217.578L759.29,217.618L759.252,217.66L759.214,217.701L759.176,217.742L759.138,217.784L759.101,217.826L759.063,217.868L759.026,217.911L758.99,217.953L758.953,217.996L758.917,218.039L758.881,218.083L758.845,218.126L758.81,218.17L758.775,218.214L758.74,218.258L758.705,218.302L758.671,218.347L758.636,218.392L758.603,218.437L758.569,218.482L758.536,218.527L758.502,218.573L758.47,218.619L758.437,218.665L758.405,218.711L758.373,218.758L758.341,218.804L758.31,218.851L758.278,218.898L758.247,218.945L758.217,218.993L758.186,219.041L758.156,219.088L758.126,219.136L758.097,219.185L758.068,219.233L758.039,219.282L758.01,219.33L757.982,219.379L757.954,219.429L757.926,219.478L757.898,219.527L757.871,219.577L757.844,219.627L757.817,219.677L757.791,219.727L757.765,219.778L757.739,219.828L757.714,219.879L757.689,219.93L757.664,219.981L757.639,220.033L757.615,220.084L757.591,220.136L757.567,220.188L757.544,220.24L757.521,220.292L757.498,220.344L757.476,220.397L757.454,220.449L757.432,220.502L757.411,220.555L757.389,220.608L757.369,220.661L757.348,220.715L757.328,220.768L757.308,220.822L757.288,220.876L757.269,220.93L757.25,220.984L757.232,221.039L757.213,221.093L757.195,221.148L757.178,221.203L757.16,221.258L757.143,221.313L757.127,221.368L757.111,221.423L757.095,221.479L757.079,221.535L757.064,221.59L757.049,221.646L757.034,221.702L757.02,221.759L757.006,221.815L756.992,221.871L756.979,221.928L756.966,221.985L756.953,222.042L756.941,222.099L756.929,222.156L756.918,222.213L756.906,222.27L756.896,222.328L756.885,222.386L756.875,222.443L756.865,222.501L756.856,222.559L756.847,222.617L756.838,222.675L756.829,222.734L756.821,222.792L756.814,222.851L756.807,222.91L756.8,222.968L756.793,223.027L756.787,223.086L756.781,223.145L756.776,223.205L756.77,223.264L756.766,223.323L756.761,223.383L756.757,223.442L756.754,223.502L756.751,223.562L756.748,223.622L756.745,223.682L756.743,223.742L756.741,223.802L756.74,223.863L756.739,223.923L756.739,223.984L756.738,224.044L756.738,224.105L756.739,224.165L756.74,224.226L756.741,224.286L756.743,224.346L756.745,224.406L756.748,224.466L756.75,224.526L756.754,224.586L756.757,224.646L756.761,224.706L756.766,224.765L756.77,224.824L756.775,224.884L756.781,224.943L756.787,225.002L756.793,225.061L756.799,225.12L756.806,225.179L756.814,225.238L756.821,225.296L756.829,225.355L756.838,225.413L756.846,225.471L756.855,225.529L756.865,225.587L756.875,225.645L756.885,225.703L756.895,225.76L756.906,225.818L756.917,225.875L756.929,225.933L756.941,225.99L756.953,226.047L756.965,226.104L756.978,226.16L756.992,226.217L757.005,226.273L757.019,226.33L757.033,226.386L757.048,226.442L757.063,226.498L757.078,226.554L757.094,226.61L757.11,226.665L757.126,226.72L757.143,226.776L757.16,226.831L757.177,226.886L757.195,226.941L757.213,226.995L757.231,227.05L757.249,227.104L757.268,227.158L757.288,227.212L757.307,227.266L757.327,227.32L757.347,227.374L757.368,227.427L757.389,227.48L757.41,227.534L757.431,227.587L757.453,227.639L757.475,227.692L757.497,227.744L757.52,227.797L757.543,227.849L757.567,227.901L757.59,227.953L757.614,228.004L757.638,228.056L757.663,228.107L757.688,228.158L757.713,228.209L757.738,228.26L757.764,228.311L757.79,228.361L757.816,228.411L757.843,228.462L757.87,228.511L757.897,228.561L757.925,228.611L757.952,228.66L757.981,228.709L758.009,228.758L758.038,228.807L758.067,228.856L758.096,228.904L758.125,228.952L758.155,229L758.185,229.048L758.215,229.096L758.246,229.143L758.277,229.191L758.308,229.238L758.34,229.284L758.371,229.331L758.403,229.378L758.436,229.424L758.468,229.47L758.501,229.516L758.534,229.561L758.567,229.607L758.601,229.652L758.635,229.697L758.669,229.742L758.704,229.787L758.738,229.831L758.773,229.875L758.808,229.919L758.844,229.963L758.879,230.006L758.915,230.05L758.952,230.093L758.988,230.136L759.025,230.178L759.062,230.221L759.099,230.263L759.136,230.305L759.174,230.347L759.212,230.388L759.25,230.429L759.289,230.471L759.327,230.511L759.366,230.552L759.406,230.592L759.445,230.632L759.485,230.672L759.525,230.712L759.565,230.751L759.605,230.791L759.646,230.83L759.686,230.868L759.727,230.907L759.769,230.945L759.81,230.983L759.852,231.021L759.894,231.058L759.936,231.095L759.979,231.132L760.021,231.169L760.064,231.205L760.107,231.242L760.15,231.278L760.194,231.313L760.238,231.349L760.282,231.384L760.326,231.419L760.37,231.454L760.415,231.488L760.46,231.522L760.505,231.556L760.55,231.59L760.595,231.623L760.641,231.656L760.687,231.689L760.733,231.722L760.779,231.754L760.826,231.786L760.872,231.818L760.919,231.849L760.966,231.88L761.013,231.911L761.061,231.942L761.108,231.972L761.156,232.002L761.204,232.032L761.253,232.062L761.301,232.091L761.35,232.12L761.398,232.149L761.447,232.177L761.497,232.205L761.546,232.233L761.595,232.26L761.645,232.288L761.695,232.315L761.745,232.341L761.795,232.367L761.846,232.394L761.896,232.419L761.947,232.445L761.998,232.47L762.049,232.495L762.101,232.519L762.152,232.544L762.204,232.568L762.256,232.591L762.308,232.614L762.36,232.638L762.412,232.66L762.465,232.683L762.517,232.705L762.57,232.727L762.623,232.748L762.676,232.769L762.729,232.79L762.783,232.811L762.836,232.831L762.89,232.851L762.944,232.87L762.998,232.889L763.052,232.908L763.107,232.927L763.161,232.945L763.216,232.963L763.271,232.981L763.326,232.998L763.381,233.015L763.436,233.032L763.491,233.048L763.547,233.064L763.603,233.08L763.658,233.095L763.714,233.11L763.77,233.125L763.827,233.139L763.883,233.153L763.939,233.167L763.996,233.18L764.053,233.193L764.11,233.205L764.167,233.218L764.224,233.229L764.281,233.241L764.338,233.252L764.396,233.263L764.454,233.274L764.511,233.284L764.569,233.294L764.627,233.303L764.685,233.312L764.743,233.321L764.802,233.329L764.86,233.337L764.919,233.345L764.977,233.352L765.036,233.359L765.095,233.366L765.154,233.372L765.213,233.378L765.273,233.383L765.332,233.388L765.391,233.393L765.451,233.397L765.51,233.401L765.57,233.405L765.63,233.408L765.69,233.411L765.75,233.413L765.81,233.416L765.87,233.417L765.931,233.419L765.991,233.42L766.052,233.42L766.111,233.42L773.342,233.422C775.155,233.576 788.289,235.168 788.289,248.899L788.289,271.907C788.289,277.081 792.49,281.282 797.664,281.282C802.838,281.282 807.039,277.081 807.039,271.907L807.039,248.899C807.039,237.464 802.917,229.838 797.592,224.755C802.931,219.971 807.039,212.55 807.039,201.039C807.039,168.756 774.185,166.827 774.185,166.827C774.012,166.817 773.838,166.812 773.664,166.812L734.572,166.812ZM391.792,271.893L391.708,208.173C391.708,208.11 391.707,208.047 391.706,207.984C391.706,207.984 391.307,196.817 398.924,190.156C402.152,187.333 406.886,185.562 413.597,185.562C420.308,185.562 425.042,187.333 428.269,190.156C435.885,196.816 435.486,207.983 435.486,207.983C435.484,208.05 435.483,208.118 435.483,208.186L435.483,271.906C435.483,277.08 439.684,281.281 444.858,281.281C450.033,281.281 454.233,277.08 454.233,271.906L454.233,208.186C454.231,208.388 454.51,188.197 440.613,176.042C434.62,170.801 426.059,166.812 413.597,166.812C401.135,166.812 392.575,170.8 386.581,176.042C372.682,188.196 372.96,208.387 372.96,208.387C372.958,208.198 373.042,271.918 373.042,271.918C373.049,277.093 377.255,281.288 382.43,281.281C387.604,281.274 391.799,277.068 391.792,271.893ZM107.144,281.281L107.146,281.281C112.32,281.281 116.521,277.08 116.521,271.906L116.521,208.186C116.521,208.129 116.52,208.073 116.519,208.017L116.519,207.992C116.518,207.952 116.518,207.913 116.517,207.873L116.515,207.771C116.507,206.205 116.743,196.29 123.78,190.175C127.041,187.341 131.824,185.562 138.606,185.562C145.399,185.562 150.198,187.348 153.478,190.187C161.179,196.853 160.839,208.025 160.839,208.025C160.838,208.078 160.838,208.131 160.838,208.184L160.826,271.904C160.825,277.078 165.026,281.28 170.2,281.281C175.374,281.282 179.575,277.082 179.576,271.908L179.588,208.187C179.587,208.346 179.785,188.16 165.749,176.011C159.713,170.786 151.107,166.812 138.606,166.812C126.093,166.812 117.498,170.793 111.48,176.023C109.858,177.432 108.428,178.95 107.168,180.53C105.92,178.957 104.504,177.446 102.899,176.042C96.906,170.801 88.345,166.812 75.883,166.812C63.421,166.812 54.861,170.8 48.867,176.042C34.969,188.196 35.246,208.387 35.246,208.387C35.244,208.198 35.328,271.918 35.328,271.918C35.335,277.093 39.541,281.288 44.716,281.281C49.89,281.274 54.085,277.068 54.078,271.893L53.994,208.173C53.994,208.11 53.993,208.047 53.992,207.984C53.992,207.984 53.594,196.817 61.21,190.156C64.438,187.333 69.172,185.562 75.883,185.562C82.594,185.562 87.328,187.333 90.555,190.156C98.171,196.816 97.772,207.983 97.772,207.983C97.77,208.05 97.769,208.118 97.769,208.186L97.769,271.906C97.769,277.08 101.97,281.281 107.144,281.281ZM203.77,224.042C198.804,228.841 195.08,236.093 195.08,247.054C195.08,279.337 227.934,281.266 227.934,281.266C228.107,281.276 228.281,281.281 228.455,281.281L267.556,281.281C272.73,281.281 276.931,277.08 276.931,271.906C276.931,266.732 272.73,262.531 267.556,262.531L228.777,262.531C226.96,262.376 213.83,260.783 213.83,247.054C213.83,232.991 228.37,233.42 228.37,233.42C228.435,233.421 228.501,233.422 228.567,233.422L253.387,233.422C258.561,233.422 262.762,229.221 262.762,224.047L262.762,224.045C262.762,218.871 258.561,214.67 253.387,214.67L228.567,214.67C228.51,214.67 228.453,214.67 228.396,214.671L228.378,214.672C228.354,214.672 228.33,214.672 228.306,214.672L228.238,214.673C226.79,214.675 213.83,214.314 213.83,201.037C213.83,187.317 226.944,185.717 228.768,185.561C228.777,185.561 267.556,185.561 267.556,185.561C272.73,185.561 276.931,181.36 276.931,176.186C276.931,171.011 272.73,166.811 267.556,166.811L228.455,166.811C228.281,166.811 228.107,166.815 227.934,166.825C227.934,166.825 195.08,168.755 195.08,201.037C195.08,211.995 198.802,219.246 203.77,224.042ZM316.853,185.561L316.853,271.906C316.853,277.08 321.053,281.281 326.228,281.281C331.402,281.281 335.603,277.08 335.603,271.906L335.603,185.561L357.687,185.561C362.861,185.561 367.062,181.36 367.062,176.186C367.062,171.011 362.861,166.811 357.687,166.811L294.769,166.811C289.594,166.811 285.394,171.011 285.394,176.186C285.394,181.36 289.594,185.561 294.769,185.561L316.853,185.561ZM829.113,224.042C824.147,228.841 820.423,236.093 820.423,247.054C820.423,279.336 853.276,281.266 853.276,281.266C853.45,281.276 853.624,281.28 853.798,281.28L892.899,281.28C898.073,281.28 902.274,277.08 902.274,271.905C902.274,266.731 898.073,262.53 892.899,262.53L854.119,262.53C852.302,262.376 839.173,260.782 839.173,247.054C839.173,232.99 853.712,233.419 853.712,233.419C853.778,233.421 853.844,233.421 853.909,233.421L878.729,233.421C883.903,233.421 888.104,229.22 888.104,224.046L888.104,224.044C888.104,218.87 883.903,214.669 878.729,214.669L853.909,214.669C853.852,214.669 853.795,214.67 853.739,214.671L853.721,214.671C853.697,214.671 853.673,214.672 853.649,214.672L853.581,214.673C852.132,214.674 839.173,214.314 839.173,201.037C839.173,187.316 852.287,185.717 854.11,185.561C854.119,185.56 892.899,185.56 892.899,185.56C898.073,185.56 902.274,181.359 902.274,176.185C902.274,171.011 898.073,166.81 892.899,166.81L853.798,166.81C853.624,166.81 853.45,166.815 853.276,166.825C853.276,166.825 820.423,168.754 820.423,201.037C820.423,211.995 824.145,219.246 829.113,224.042Z"/>
        </clipPath>
        <g clip-path="url(#_clip1)">
            <rect x="35.246" y="166.81" width="867.028" height="114.473" style="fill:url(#_Linear2);"/>
        </g>
    </g>
    <defs>
        <linearGradient id="_Linear2" x1="0" y1="0" x2="1" y2="0" gradientUnits="userSpaceOnUse" gradientTransform="matrix(867.028,0,0,114.473,35.2457,224.046)"><stop offset="0" style="stop-color:rgb(0,208,255);stop-opacity:1"/><stop offset="1" style="stop-color:rgb(255,0,116);stop-opacity:1"/></linearGradient>
    </defs>
</svg>
